<svg version="1.1" class="highcharts-root" style="font-family: Helvetica, Arial, sans-serif; font-size: 1rem;" xmlns="http://www.w3.org/2000/svg" width="584" height="400" viewBox="0 0 584 400" aria-hidden="false" aria-label="Interactive chart"><desc aria-hidden="true">Created with Highcharts 11.0.1</desc><defs aria-hidden="true"><filter id="highcharts-drop-shadow-0"><feDropShadow dx="1" dy="1" flood-color="#000000" flood-opacity="0.75" stdDeviation="2.5"></feDropShadow></filter><clipPath id="highcharts-b0kpbq4-1-"><rect x="0" y="0" width="564" height="339" fill="none"></rect></clipPath><clipPath id="highcharts-b0kpbq4-10-"><rect x="0" y="0" width="564" height="339" fill="none"></rect></clipPath><path fill="none" d="M 282 -1.5250000000000057 A 171.025 171.025 0 0 1 384.3645655097239 32.49253176193113" id="highcharts-b0kpbq4-18"></path><path fill="none" d="M 389.4589955422 36.450704992241896 A 171.025 171.025 0 0 1 453.0203923429283 170.75539948657354" id="highcharts-b0kpbq4-19"></path><path fill="none" d="M 301.089858882681 339.45625293833507 A 171.025 171.025 0 0 0 452.69185828175193 180.16958955734984" id="highcharts-b0kpbq4-20"></path><path fill="none" d="M 118.63645727089676 118.88475000559164 A 171.025 171.025 0 0 0 288.73752153803986 340.39223630266076" id="highcharts-b0kpbq4-21"></path><path fill="none" d="M 121.67104707972541 109.96700511070875 A 171.025 171.025 0 0 1 189.19371571681074 25.845747634997394" id="highcharts-b0kpbq4-22"></path><path fill="none" d="M 197.39243908535565 20.869211597748887 A 171.025 171.025 0 0 1 216.98377275511757 11.315168806102605" id="highcharts-b0kpbq4-23"></path><path fill="none" d="M 228.92957123656296 6.917466448991036 A 171.025 171.025 0 0 1 271.83885223976375 -1.2228798409710748" id="highcharts-b0kpbq4-24"></path></defs><rect fill="#ffffff" class="highcharts-background" filter="none" x="0" y="0" width="584" height="400" rx="0" ry="0" aria-hidden="true"></rect><rect fill="none" class="highcharts-plot-background" x="10" y="46" width="564" height="339" filter="none" aria-hidden="true"></rect><rect fill="none" class="highcharts-plot-border" data-z-index="1" stroke="#cccccc" stroke-width="0" x="10" y="46" width="564" height="339" aria-hidden="true"></rect><g class="highcharts-series-group" data-z-index="3" filter="none" aria-hidden="false"><g class="highcharts-series highcharts-series-0 highcharts-dependencywheel-series highcharts-tracker" data-z-index="0.1" opacity="1" transform="translate(10,46) scale(1 1)" clip-path="url(#highcharts-b0kpbq4-10-)" aria-hidden="false"><path fill="rgba(44,175,254,0.5)" d="M 282 27.474999999999994 A 141.025 141.025 0 0 1 366.64382185023845 55.45385123738242 C 364.56602034257116 58.253408897501814 369.04705116001287 61.72355251966039 371.23761930642274 59.01132218402664 A 141.025 141.025 0 0 1 419.5067119744113 133.96122136332917 C 337.00268478976454 155.28448854533167 282 112.69 282 27.474999999999994" filter="none" class="highcharts-link highcharts-point highcharts-color-0" opacity="1" tabindex="-1" role="img" aria-label="1. From Brazil to Portugal: 5. Dependency wheel series." style="outline: none;"></path><path fill="rgba(0,226,114,0.5)" d="M 378.8447401376297 273.385499145333 A 141.025 141.025 0 0 1 297.85287067863044 310.6374759454293 C 291.0811743324161 250.34933321416293 236.0567057676728 236.64384650518838 201.7974760361666 286.71201207568583 A 141.025 141.025 0 0 1 147.74151277620774 215.82234054296924 C 228.29660511048309 188.0289362171877 320.73789605505186 211.0541996581332 378.8447401376297 273.385499145333" filter="none" class="highcharts-link highcharts-point highcharts-color-1" opacity="1" tabindex="-1" role="img" aria-label="2. From Cyprus to Greece: 5. Dependency wheel series." style="outline: none;"></path><path fill="rgba(254,106,53,0.5)" d="M 140.11915323967713 163.1026608989535 A 141.025 141.025 0 0 1 146.33733573395182 127.46736804294198 C 171.6096249951966 135.29753147793843 187.3370780550086 103.20690114695046 165.66536305626562 88.03004926864438 A 141.025 141.025 0 0 1 190.02022539284357 61.28345002627046 C 235.3441585457968 114.60821297552567 210.03232754037765 166.25501228284182 140.11915323967713 163.1026608989535" filter="none" class="highcharts-link highcharts-point highcharts-color-2" opacity="1" tabindex="-1" role="img" aria-label="3. From Greece to Serbia: 2. Dependency wheel series." style="outline: none;"></path><path fill="rgba(0,226,114,0.5)" d="M 421.4389317931825 196.4793425675311 A 141.025 141.025 0 0 1 377.89043121044267 274.26700734141144 C 337.456253175142 230.089837903394 285.1537170809816 251.57666259027673 287.4531504293301 311.42027260189116 A 141.025 141.025 0 0 1 201.7974760361666 286.71201207568583 C 249.91899041446663 216.38480483027433 337.775572717273 180.29173702701243 421.4389317931825 196.4793425675311" filter="none" class="highcharts-link highcharts-point highcharts-color-3" opacity="1" tabindex="-1" role="img" aria-label="4. From Cyprus to Greece: 5. Dependency wheel series." style="outline: none;"></path><path fill="rgba(254,106,53,0.5)" d="M 142.9355188220283 198.34736902564183 A 141.025 141.025 0 0 1 140.1586184911066 162.28036589233537 C 166.08861994368144 163.60018610916725 173.19714806973008 129.0995638346992 148.85736273350682 120.06176816751008 A 141.025 141.025 0 0 1 165.66536305626562 88.03004926864438 C 222.5857950705846 127.89182142560647 210.97725217377024 184.23287354472862 142.9355188220283 198.34736902564183" filter="none" class="highcharts-link highcharts-point highcharts-color-4" opacity="1" tabindex="-1" role="img" aria-label="5. From Greece to Serbia: 2. Dependency wheel series." style="outline: none;"></path><path fill="rgba(213,104,251,0.5)" d="M 211.73899231748362 46.071918007135125 A 141.025 141.025 0 0 1 228.0296247443319 38.12915384392787 C 260.41184989773274 116.95166153757114 228.29660511048309 188.0289362171877 147.74151277620774 215.82234054296924 A 141.025 141.025 0 0 1 142.9355188220283 198.34736902564183 C 226.37420752881133 181.03894761025674 253.89559692699345 120.12876720285405 211.73899231748362 46.071918007135125" filter="none" class="highcharts-link highcharts-point highcharts-color-5" opacity="1" tabindex="-1" role="img" aria-label="6. From Sweden to Greece: 1. Dependency wheel series." style="outline: none;"></path><path fill="rgba(0,226,114,0.5)" d="M 423.7394164771637 178.50213539740093 A 141.025 141.025 0 0 1 421.4389317931825 196.4793425675311 C 337.775572717273 180.29173702701243 245.2080901571374 126.21338001050822 190.02022539284349 61.28345002627054 A 141.025 141.025 0 0 1 204.55050780833196 50.45094799095311 C 251.02020312333278 121.88037919638124 338.6957665908655 173.10085415896037 423.7394164771637 178.50213539740093" filter="none" class="highcharts-link highcharts-point highcharts-color-6" opacity="1" tabindex="-1" role="img" aria-label="7. From Cyprus to Serbia: 1. Dependency wheel series." style="outline: none;"></path><path fill="rgba(46,224,202,0.5)" d="M 237.92850375601728 34.48591242460432 A 141.025 141.025 0 0 1 273.46608186334726 27.731622474414593 C 278.58643274533887 112.79264898976584 337.00268478976454 155.28448854533167 419.5067119744113 133.96122136332917 A 141.025 141.025 0 0 1 424.0245644533806 169.85173402954896 C 338.80982578135223 169.6406936118196 264.3714015024069 115.49436496984173 237.92850375601728 34.48591242460432" filter="none" class="highcharts-link highcharts-point highcharts-color-7" opacity="1" tabindex="-1" role="img" aria-label="8. From Croatia to Portugal: 2. Dependency wheel series." style="outline: none;"></path><path fill="#2caffe" d="M 282 11.503479073113766 A 3 3 0 0 1 285.05695301376363 8.504019729461447 A 161.025 161.025 0 0 1 375.9129260416154 38.69704534184987 A 3 3 0 0 1 376.5665558645152 42.929596125620535 L 368.1853989950948 54.14716030779165 A 3 3 0 0 1 364.0369529015087 54.79172225320596 A 141.025 141.025 0 0 0 284.937510848811 28.50559707912828 A 3 3 0 0 1 282 25.506247965406487 Z" stroke="#ffffff" stroke-width="0" opacity="1" filter="none" class="highcharts-node highcharts-point highcharts-color-0 highcharts-node"></path><path fill="#544fc5" d="M 381.27289833629806 46.5862404736108 A 3 3 0 0 1 385.53569226462224 46.173558989625235 A 161.025 161.025 0 0 1 443.01408220286976 167.6249113707603 A 3 3 0 0 1 439.99226427559574 170.65976466161098 L 425.98987263783954 170.55697811649773 A 3 3 0 0 1 423.0121669656237 167.59752985330414 A 141.025 141.025 0 0 0 372.8753145005762 61.65878413416618 A 3 3 0 0 1 372.47463211805314 57.47972697719865 Z" stroke="#ffffff" stroke-width="0" opacity="1" filter="none" class="highcharts-node highcharts-point highcharts-color-1 highcharts-node"></path><path fill="#00e272" d="M 439.6788219088107 179.5144768435284 A 3 3 0 0 1 442.47848754642985 182.75540115614606 A 161.025 161.025 0 0 1 303.16790492264084 329.12759919946814 A 3 3 0 0 1 299.79261670856255 326.49147561464025 L 298.21570920264065 312.57778094468546 A 3 3 0 0 1 300.79676536287053 309.2667064679324 A 141.025 141.025 0 0 0 422.524700060962 181.36841597588588 A 3 3 0 0 1 425.7042097499784 178.6269230923794 Z" stroke="#ffffff" stroke-width="0" opacity="1" filter="none" class="highcharts-node highcharts-point highcharts-color-2 highcharts-node"></path><path fill="#fe6a35" d="M 288.06638828322554 327.3800163358148 A 3 3 0 0 1 285.126855792207 330.4946377922406 A 161.025 161.025 0 0 1 127.26684185824809 124.92758255961888 A 3 3 0 0 1 131.034611757775 122.8915010124305 L 144.4142319537751 127.02227576563922 A 3 3 0 0 1 146.41354769915395 130.71386101362498 A 141.025 141.025 0 0 0 284.4782351585061 310.5032232805305 A 3 3 0 0 1 287.5287420575835 313.3875729041973 Z" stroke="#ffffff" stroke-width="0" opacity="1" filter="none" class="highcharts-node highcharts-point highcharts-color-3 highcharts-node"></path><path fill="#6b8abc" d="M 133.88471413387563 114.50215715324595 A 3 3 0 0 1 132.13695440430675 110.59229091381019 A 161.025 161.025 0 0 1 192.06821801990645 35.92857635375398 A 3 3 0 0 1 196.26358697912315 36.789156029683795 L 203.8621541509981 48.55092943276654 A 3 3 0 0 1 203.02235015574928 52.66429719439812 A 141.025 141.025 0 0 0 150.84603906111292 117.66671768987729 A 3 3 0 0 1 147.0117381039729 119.37645488106813 Z" stroke="#ffffff" stroke-width="0" opacity="1" filter="none" class="highcharts-node highcharts-point highcharts-color-4 highcharts-node"></path><path fill="#d568fb" d="M 203.83774144935882 32.191726530180574 A 3 3 0 0 1 205.01055476562993 28.07271851759316 A 161.025 161.025 0 0 1 217.96892363553968 21.753352374381592 A 3 3 0 0 1 221.93663085231248 23.365499242551834 L 227.25987133972 36.31697203000678 A 3 3 0 0 1 225.68312352983878 40.20785000764894 A 141.025 141.025 0 0 0 214.80170746760638 45.51435524331515 A 3 3 0 0 1 210.7650334945472 44.36095664435092 Z" stroke="#ffffff" stroke-width="0" opacity="1" filter="none" class="highcharts-node highcharts-point highcharts-color-5 highcharts-node"></path><path fill="#2ee0ca" d="M 232.97241275415172 19.302808568699504 A 3 3 0 0 1 234.9477062638606 15.502817301198462 A 161.025 161.025 0 0 1 269.3831558755662 8.97004681574299 A 3 3 0 0 1 272.6129162710636 11.782584081319868 L 273.44486600804373 25.76061671420848 A 3 3 0 0 1 270.6907453698677 28.929194408259747 A 141.025 141.025 0 0 0 241.04081005629473 34.55410201063734 A 3 3 0 0 1 237.3175842144019 32.61434573132604 Z" stroke="#ffffff" stroke-width="0" opacity="1" filter="none" class="highcharts-node highcharts-point highcharts-color-6 highcharts-node"></path></g><g class="highcharts-markers highcharts-series-0 highcharts-dependencywheel-series" data-z-index="0.1" opacity="1" transform="translate(10,46) scale(1 1)" clip-path="none" aria-hidden="true"></g></g><text x="292" text-anchor="middle" class="highcharts-title" data-z-index="4" style="color: rgb(51, 51, 51); font-size: 1.2em; font-weight: bold; fill: rgb(51, 51, 51);" y="25" aria-hidden="true">Dependancy Wheel</text><text x="292" text-anchor="middle" class="highcharts-subtitle" data-z-index="4" style="color: rgb(102, 102, 102); font-size: 0.8em; fill: rgb(102, 102, 102);" y="45" aria-hidden="true"></text><text x="10" text-anchor="start" class="highcharts-caption" data-z-index="4" style="color: rgb(102, 102, 102); font-size: 0.8em; fill: rgb(102, 102, 102);" y="397" aria-hidden="true"></text><g class="highcharts-data-labels highcharts-series-0 highcharts-dependencywheel-series highcharts-tracker" data-z-index="6" opacity="1" transform="translate(10,46) scale(1 1)" aria-hidden="true"><g class="highcharts-label highcharts-data-label highcharts-data-label-color-0" data-z-index="1" filter="none" transform=""><text x="0" data-z-index="1" y="0" dy="5" style="color: rgb(51, 51, 51); font-size: 0.7em; font-weight: bold; fill: rgb(51, 51, 51);"><textPath startOffset="50%" textAnchor="middle" text-anchor="middle" href="#highcharts-b0kpbq4-18">Brazil</textPath></text></g><g class="highcharts-label highcharts-data-label highcharts-data-label-color-1" data-z-index="1" filter="none" transform=""><text x="0" data-z-index="1" y="0" dy="5" style="color: rgb(51, 51, 51); font-size: 0.7em; font-weight: bold; fill: rgb(51, 51, 51);"><textPath startOffset="50%" textAnchor="middle" text-anchor="middle" href="#highcharts-b0kpbq4-19">Portugal</textPath></text></g><g class="highcharts-label highcharts-data-label highcharts-data-label-color-2" data-z-index="1" filter="none" transform=""><text x="0" data-z-index="1" y="0" dy="5" style="color: rgb(51, 51, 51); font-size: 0.7em; font-weight: bold; fill: rgb(51, 51, 51);"><textPath startOffset="50%" textAnchor="middle" text-anchor="middle" href="#highcharts-b0kpbq4-20">Cyprus</textPath></text></g><g class="highcharts-label highcharts-data-label highcharts-data-label-color-3" data-z-index="1" filter="none" transform=""><text x="0" data-z-index="1" y="0" dy="5" style="color: rgb(51, 51, 51); font-size: 0.7em; font-weight: bold; fill: rgb(51, 51, 51);"><textPath startOffset="50%" textAnchor="middle" text-anchor="middle" href="#highcharts-b0kpbq4-21">Greece</textPath></text></g><g class="highcharts-label highcharts-data-label highcharts-data-label-color-4" data-z-index="1" filter="none" transform=""><text x="0" data-z-index="1" y="0" dy="5" style="color: rgb(51, 51, 51); font-size: 0.7em; font-weight: bold; fill: rgb(51, 51, 51);"><textPath startOffset="50%" textAnchor="middle" text-anchor="middle" href="#highcharts-b0kpbq4-22">Serbia</textPath></text></g><g class="highcharts-label highcharts-data-label highcharts-data-label-color-5 highcharts-data-label-hidden" data-z-index="1" filter="none" transform="" opacity="0" style="pointer-events: none;"><text x="0" data-z-index="1" y="0" dy="5" style="color: rgb(51, 51, 51); font-size: 0.7em; font-weight: bold; fill: rgb(51, 51, 51);"><textPath startOffset="50%" textAnchor="middle" text-anchor="middle" href="#highcharts-b0kpbq4-23">Sweden</textPath></text></g><g class="highcharts-label highcharts-data-label highcharts-data-label-color-6" data-z-index="1" filter="none" transform=""><text x="0" data-z-index="1" y="0" dy="5" style="color: rgb(51, 51, 51); font-size: 0.7em; font-weight: bold; fill: rgb(51, 51, 51);"><textPath startOffset="50%" textAnchor="middle" text-anchor="middle" href="#highcharts-b0kpbq4-24">Croatia</textPath></text></g></g><g class="highcharts-legend highcharts-no-tooltip" data-z-index="7" visibility="hidden" aria-hidden="true"><rect fill="none" class="highcharts-legend-box" rx="0" ry="0" stroke="#999999" stroke-width="0" filter="none" x="0" y="0" width="8" height="8"></rect><g data-z-index="1"><g></g></g></g><text x="574" class="highcharts-credits" text-anchor="end" data-z-index="8" y="395" style="cursor: pointer; color: rgb(153, 153, 153); font-size: 0.6em; fill: rgb(153, 153, 153);" aria-label="Chart credits: Highcharts.com" aria-hidden="false">Highcharts.com</text></svg>